<svg xmlns="http://www.w3.org/2000/svg" width="960" height="40" viewBox="0 0 960 40" fill="none">
  <!-- seamless horizontal icon band on void -->
  <rect width="960" height="40" fill="#120E17"/>
  <!-- scissors -->
  <g transform="translate(28 8)" stroke="#FF6A00" stroke-width="2" fill="none" stroke-linecap="round">
    <circle cx="5" cy="5" r="4"/><circle cx="5" cy="19" r="4"/>
    <path d="M8 8 L22 22 M8 16 L22 2"/>
  </g>
  <circle cx="90" cy="20" r="2" fill="#FF6A00"/>
  <!-- key -->
  <g transform="translate(120 10)" fill="#FF6A00">
    <circle cx="8" cy="8" r="7" fill="none" stroke="#FF6A00" stroke-width="2"/>
    <circle cx="8" cy="8" r="2.5"/>
    <path d="M14 9 H32 V14 H26 V20 H20 V14 H14 Z"/>
  </g>
  <circle cx="190" cy="20" r="2" fill="#FF6A00"/>
  <!-- pocket -->
  <g transform="translate(220 6)" stroke="#FF6A00" stroke-width="2" fill="none">
    <path d="M4 10 C4 6 8 4 14 4 H26 C32 4 36 6 36 10 V26 C36 32 30 36 20 36 C10 36 4 32 4 26 Z"/>
    <path d="M4 14 H36"/>
  </g>
  <circle cx="290" cy="20" r="2" fill="#FF6A00"/>
  <!-- star -->
  <g transform="translate(318 10)" stroke="#FF6A00" stroke-width="2" stroke-linecap="round">
    <path d="M10 0 V20 M0 10 H20 M3 3 L17 17 M3 17 L17 3"/>
  </g>
  <circle cx="370" cy="20" r="2" fill="#FF6A00"/>
  <!-- comb -->
  <g transform="translate(400 8)" stroke="#FF6A00" stroke-width="2" fill="none" stroke-linecap="round">
    <rect x="0" y="2" width="8" height="20" rx="2"/>
    <path d="M8 5 H16 M8 10 H16 M8 15 H16 M8 20 H16"/>
  </g>
  <circle cx="450" cy="20" r="2" fill="#FF6A00"/>
  <!-- clippers -->
  <g transform="translate(480 10)" stroke="#FF6A00" stroke-width="2" fill="none">
    <rect x="2" y="8" width="22" height="12" rx="2"/>
    <rect x="5" y="2" width="16" height="8" rx="1"/>
    <path d="M8 2 V-2 M13 2 V-3 M18 2 V-2" stroke-linecap="round"/>
  </g>
  <circle cx="540" cy="20" r="2" fill="#FF6A00"/>
  <!-- scissors again for tile loop -->
  <g transform="translate(568 8)" stroke="#FF6A00" stroke-width="2" fill="none" stroke-linecap="round">
    <circle cx="5" cy="5" r="4"/><circle cx="5" cy="19" r="4"/>
    <path d="M8 8 L22 22 M8 16 L22 2"/>
  </g>
  <circle cx="630" cy="20" r="2" fill="#FF6A00"/>
  <g transform="translate(660 10)" fill="#FF6A00">
    <circle cx="8" cy="8" r="7" fill="none" stroke="#FF6A00" stroke-width="2"/>
    <circle cx="8" cy="8" r="2.5"/>
    <path d="M14 9 H32 V14 H26 V20 H20 V14 H14 Z"/>
  </g>
  <circle cx="730" cy="20" r="2" fill="#FF6A00"/>
  <g transform="translate(760 6)" stroke="#FF6A00" stroke-width="2" fill="none">
    <path d="M4 10 C4 6 8 4 14 4 H26 C32 4 36 6 36 10 V26 C36 32 30 36 20 36 C10 36 4 32 4 26 Z"/>
    <path d="M4 14 H36"/>
  </g>
  <circle cx="830" cy="20" r="2" fill="#FF6A00"/>
  <g transform="translate(858 10)" stroke="#FF6A00" stroke-width="2" stroke-linecap="round">
    <path d="M10 0 V20 M0 10 H20 M3 3 L17 17 M3 17 L17 3"/>
  </g>
  <circle cx="920" cy="20" r="2" fill="#FF6A00"/>
</svg>
